<svg width="188" height="156" viewBox="0 0 188 156" fill="none" xmlns="http://www.w3.org/2000/svg">
<path d="M186.24 82.2402L114.24 154.24C113.103 155.3 111.598 155.877 110.044 155.85C108.489 155.822 107.006 155.193 105.907 154.093C104.808 152.994 104.178 151.511 104.151 149.956C104.123 148.402 104.7 146.898 105.76 145.76L167.51 84.0002H6C4.4087 84.0002 2.88258 83.3681 1.75736 82.2429C0.63214 81.1177 0 79.5915 0 78.0002C0 76.4089 0.63214 74.8828 1.75736 73.7576C2.88258 72.6324 4.4087 72.0002 6 72.0002H167.51L105.76 10.2402C104.7 9.10284 104.123 7.59846 104.151 6.04406C104.178 4.48965 104.808 3.00657 105.907 1.90726C107.006 0.807957 108.489 0.178263 110.044 0.150837C111.598 0.123411 113.103 0.700395 114.24 1.76023L186.24 73.7602C187.364 74.8852 187.995 76.4102 187.995 78.0002C187.995 79.5902 187.364 81.1152 186.24 82.2402Z" fill="black"/>
</svg>
