<svg width="31" height="34" viewBox="0 0 31 34" fill="none" xmlns="http://www.w3.org/2000/svg">
<path d="M18.1671 31.2498C17.896 31.7297 17.507 32.128 17.0389 32.4049C16.5709 32.6818 16.0402 32.8276 15.5 32.8276C14.9598 32.8276 14.4291 32.6818 13.9611 32.4049C13.493 32.128 13.104 31.7297 12.8329 31.2498M24.75 10.6665C24.75 8.14695 23.7754 5.73058 22.0407 3.94899C20.306 2.16739 17.9533 1.1665 15.5 1.1665C13.0467 1.1665 10.694 2.16739 8.95926 3.94899C7.22455 5.73058 6.25 8.14695 6.25 10.6665C6.25 21.7498 1.625 24.9165 1.625 24.9165H29.375C29.375 24.9165 24.75 21.7498 24.75 10.6665Z" stroke="#49454F" stroke-width="2" stroke-linecap="round" stroke-linejoin="round"/>
</svg>
