<svg width="192" height="208" viewBox="0 0 192 208" fill="none" xmlns="http://www.w3.org/2000/svg">
<path d="M184 32H144V24C144 17.6348 141.471 11.5303 136.971 7.02944C132.47 2.52856 126.365 0 120 0H72C65.6348 0 59.5303 2.52856 55.0294 7.02944C50.5286 11.5303 48 17.6348 48 24V32H8C5.87827 32 3.84344 32.8429 2.34315 34.3431C0.842856 35.8434 0 37.8783 0 40C0 42.1217 0.842856 44.1566 2.34315 45.6569C3.84344 47.1571 5.87827 48 8 48H16V192C16 196.243 17.6857 200.313 20.6863 203.314C23.6869 206.314 27.7565 208 32 208H160C164.243 208 168.313 206.314 171.314 203.314C174.314 200.313 176 196.243 176 192V48H184C186.122 48 188.157 47.1571 189.657 45.6569C191.157 44.1566 192 42.1217 192 40C192 37.8783 191.157 35.8434 189.657 34.3431C188.157 32.8429 186.122 32 184 32ZM64 24C64 21.8783 64.8429 19.8434 66.3431 18.3431C67.8434 16.8429 69.8783 16 72 16H120C122.122 16 124.157 16.8429 125.657 18.3431C127.157 19.8434 128 21.8783 128 24V32H64V24ZM160 192H32V48H160V192ZM80 88V152C80 154.122 79.1571 156.157 77.6569 157.657C76.1566 159.157 74.1217 160 72 160C69.8783 160 67.8434 159.157 66.3431 157.657C64.8429 156.157 64 154.122 64 152V88C64 85.8783 64.8429 83.8434 66.3431 82.3431C67.8434 80.8429 69.8783 80 72 80C74.1217 80 76.1566 80.8429 77.6569 82.3431C79.1571 83.8434 80 85.8783 80 88ZM128 88V152C128 154.122 127.157 156.157 125.657 157.657C124.157 159.157 122.122 160 120 160C117.878 160 115.843 159.157 114.343 157.657C112.843 156.157 112 154.122 112 152V88C112 85.8783 112.843 83.8434 114.343 82.3431C115.843 80.8429 117.878 80 120 80C122.122 80 124.157 80.8429 125.657 82.3431C127.157 83.8434 128 85.8783 128 88Z" fill="black"/>
</svg>
